<svg version="1.0" xmlns="http://www.w3.org/2000/svg"
 width="583.000000pt" height="428.000000pt" viewBox="0 0 583.000000 428.000000"
 preserveAspectRatio="xMidYMid meet">

<g transform="translate(0.000000,428.000000) scale(0.100000,-0.100000)"
fill="#fff" stroke="none">
<path d="M2839 4116 c79 -114 79 -193 2 -349 -84 -169 -97 -257 -51 -346 34
-67 114 -99 202 -80 178 39 256 277 169 524 -53 151 -177 266 -315 291 l-39 7
32 -47z m215 -331 c30 -113 16 -243 -31 -290 -30 -29 -77 -33 -111 -9 -40 28
-30 86 36 216 32 62 61 124 65 138 9 35 23 17 41 -55z"/>
<path d="M3644 3905 c-8 -32 2 -165 18 -238 22 -108 83 -194 154 -217 42 -14
47 -10 65 54 32 116 -49 284 -191 396 l-39 31 -7 -26z"/>
<path d="M2035 3798 c-125 -139 -170 -329 -102 -423 13 -16 18 -17 44 -6 43
18 88 68 114 126 18 40 24 74 27 172 4 124 -2 193 -18 193 -4 0 -34 -28 -65
-62z"/>
<path d="M3918 3309 c31 -64 59 -114 61 -113 5 5 -82 183 -102 209 -9 11 10
-32 41 -96z"/>
<path d="M4203 3400 c-57 -12 -117 -44 -142 -76 -30 -38 -28 -94 5 -127 46
-47 121 -44 208 7 53 31 191 175 179 187 -13 13 -201 20 -250 9z"/>
<path d="M3560 3359 c63 -122 147 -215 227 -251 151 -67 214 114 74 214 -53
38 -150 68 -243 75 l-80 6 22 -44z"/>
<path d="M2167 3335 c-76 -15 -164 -53 -214 -91 -67 -51 -92 -147 -53 -197 48
-60 142 -37 224 54 40 45 136 212 136 238 0 13 -6 13 -93 -4z"/>
<path d="M1917 3305 c-24 -50 -20 -58 4 -12 11 22 19 41 17 43 -3 2 -12 -12
-21 -31z"/>
<path d="M1428 3276 c-37 -6 -71 -15 -75 -20 -13 -13 123 -133 189 -166 101
-50 200 -37 228 29 26 63 -20 128 -110 155 -62 18 -137 19 -232 2z"/>
<path d="M2625 3220 c-3 -5 14 -87 39 -182 25 -95 99 -384 166 -643 66 -258
123 -478 126 -487 10 -33 42 -21 53 20 6 20 55 213 111 427 55 215 127 495
160 623 33 128 58 238 55 243 -8 12 -702 12 -710 -1z"/>
<path d="M3985 3164 c40 -150 46 -334 15 -481 -75 -354 -349 -737 -725 -1012
-33 -24 -62 -45 -64 -47 -2 -2 10 -26 27 -55 l30 -52 142 139 c78 76 177 180
219 229 299 350 437 679 418 999 -6 95 -38 253 -59 286 -7 11 -8 10 -3 -6z"/>
<path d="M1846 3124 c-4 -14 -5 -28 -3 -31 3 -2 8 8 11 23 4 14 5 28 3 31 -3
2 -8 -8 -11 -23z"/>
<path d="M1819 3008 c-18 -95 -17 -285 0 -373 70 -357 338 -717 799 -1073 l81
-62 26 51 c15 28 25 53 22 55 -2 2 -41 27 -87 55 -335 203 -619 513 -749 815
-76 176 -106 368 -82 519 16 99 7 110 -10 13z"/>
<path d="M3559 2997 c53 -138 143 -253 217 -275 44 -13 105 -15 140 -6 19 5
20 10 13 52 -5 26 -21 72 -37 102 -44 87 -118 124 -290 145 l-52 7 9 -25z"/>
<path d="M2205 2953 c-78 -17 -149 -49 -188 -83 -51 -46 -75 -96 -84 -182 l-6
-61 71 6 c86 7 117 22 170 82 37 43 91 150 107 218 7 25 5 27 -21 26 -16 -1
-38 -3 -49 -6z"/>
<path d="M4235 2933 c-100 -30 -147 -91 -125 -159 14 -42 53 -64 112 -64 79 1
173 61 261 167 l47 58 -37 7 c-66 12 -206 7 -258 -9z"/>
<path d="M1396 2815 c-38 -8 -70 -16 -72 -18 -3 -2 28 -35 69 -73 88 -84 151
-117 232 -122 55 -4 64 -1 93 23 27 22 32 34 32 70 0 49 -31 88 -90 113 -49
20 -182 24 -264 7z"/>
<path d="M3466 2688 c43 -242 112 -331 259 -341 l40 -2 3 53 c6 104 -38 197
-117 246 -37 24 -162 76 -180 76 -6 0 -8 -13 -5 -32z"/>
<path d="M2314 2641 c-150 -75 -205 -164 -189 -306 l7 -64 31 5 c18 3 56 17
85 31 58 27 102 83 122 153 13 43 33 196 28 211 -2 6 -39 -8 -84 -30z"/>
<path d="M4108 2420 c-136 -41 -186 -164 -88 -215 77 -40 176 -1 293 117 42
43 77 82 77 87 0 5 -14 11 -31 15 -44 8 -218 6 -251 -4z"/>
<path d="M3285 2281 c46 -237 120 -331 263 -331 l32 0 0 58 c0 138 -70 242
-205 307 -104 50 -105 50 -90 -34z"/>
<path d="M2551 2298 c-120 -63 -192 -158 -207 -275 -9 -77 1 -123 29 -123 107
0 197 90 225 225 12 58 27 205 20 205 -2 0 -32 -15 -67 -32z"/>
<path d="M1553 2307 c-24 -5 -43 -16 -43 -23 0 -21 122 -123 186 -155 78 -39
128 -46 177 -25 47 19 73 70 56 113 -29 77 -88 103 -229 102 -58 -1 -124 -6
-147 -12z"/>
<path d="M3832 1920 c-106 -23 -173 -90 -156 -158 29 -115 190 -96 325 39 60
60 95 106 87 114 -10 10 -215 14 -256 5z"/>
<path d="M1916 1835 c-38 -8 -70 -16 -73 -18 -2 -2 29 -34 68 -72 129 -121
260 -159 331 -96 26 23 32 36 31 65 -1 50 -23 80 -78 106 -59 28 -182 35 -279
15z"/>
<path d="M2159 1273 c0 -105 -3 -132 -11 -113 -34 83 -52 115 -89 155 -37 41
-109 85 -137 85 -9 0 -12 -53 -12 -200 l0 -200 35 0 35 0 0 152 0 152 29 -28
c39 -38 78 -118 98 -204 l17 -72 51 0 50 0 -3 205 -3 205 -29 0 -30 0 -1 -137z"/>
<path d="M3109 1387 c-66 -35 -102 -93 -107 -171 -5 -76 12 -120 68 -170 146
-132 380 -8 354 187 -18 139 -187 221 -315 154z m167 -56 c105 -48 112 -195
12 -255 -33 -20 -110 -21 -148 -1 -84 43 -101 162 -33 227 53 50 103 59 169
29z"/>
<path d="M2354 1200 l-92 -200 40 0 c28 0 49 7 69 25 56 46 173 47 233 2 22
-18 47 -27 70 -27 l36 0 -24 53 c-12 28 -53 118 -91 200 l-67 147 -42 0 -41
-1 -91 -199z m181 24 c25 -53 45 -99 45 -103 0 -3 -43 -6 -95 -6 -52 0 -94 3
-93 6 20 47 92 199 95 199 2 0 24 -43 48 -96z"/>
<path d="M2693 1200 l82 -201 38 3 39 3 74 194 c41 107 74 196 74 197 0 2 -15
4 -34 4 -38 0 -33 10 -131 -252 -10 -27 -20 -48 -24 -48 -3 0 -33 68 -66 150
l-59 150 -37 0 -37 0 81 -200z"/>
<path d="M3470 1200 l0 -200 35 0 35 0 0 200 0 200 -35 0 -35 0 0 -200z"/>
<path d="M3590 1351 c0 -27 5 -62 11 -78 15 -40 67 -91 101 -98 l28 -7 0 -84
0 -84 35 0 35 0 0 84 c0 80 1 84 23 90 33 8 75 43 92 77 9 16 18 56 22 89 l6
60 -37 0 -36 0 0 -51 c0 -45 -4 -55 -34 -85 -78 -78 -186 -19 -186 101 0 32
-2 35 -30 35 -29 0 -30 -1 -30 -49z"/>
<path d="M967 840 c-58 -15 -109 -45 -154 -89 -62 -62 -86 -121 -91 -218 -3
-71 -1 -89 21 -137 57 -124 170 -199 302 -200 59 0 77 4 118 28 54 32 101 30
132 -4 14 -16 31 -20 78 -20 l59 0 -25 43 c-17 29 -41 50 -77 70 -69 36 -132
36 -211 1 -71 -32 -123 -28 -192 16 -67 42 -101 106 -101 190 -1 57 3 73 29
115 17 27 50 63 74 80 39 27 50 30 121 30 71 0 82 -3 121 -30 24 -17 57 -53
74 -80 25 -40 30 -59 30 -109 0 -38 -7 -74 -18 -95 -20 -40 -15 -46 46 -55 45
-8 51 -3 68 59 18 63 6 172 -24 230 -30 61 -102 130 -163 156 -52 23 -162 33
-217 19z"/>
<path d="M1659 827 c-137 -51 -222 -172 -222 -313 0 -127 70 -236 192 -296 65
-32 205 -33 273 -1 63 29 134 96 166 158 23 43 27 62 27 140 0 75 -4 98 -25
140 -31 64 -91 124 -155 155 -61 29 -198 38 -256 17z m212 -114 c181 -93 158
-352 -37 -409 -235 -68 -399 223 -214 378 76 64 163 75 251 31z"/>
<path d="M4159 827 c-139 -52 -221 -165 -222 -307 -1 -129 65 -238 180 -296
51 -26 68 -29 148 -29 78 0 97 4 146 28 66 32 132 99 162 165 33 71 31 189 -5
264 -31 67 -90 127 -156 159 -58 28 -196 37 -253 16z m226 -122 c25 -14 58
-45 73 -67 24 -37 27 -51 27 -123 0 -74 -3 -86 -29 -123 -36 -52 -79 -80 -148
-94 -169 -34 -315 136 -254 297 20 50 91 120 140 135 53 16 141 5 191 -25z"/>
<path d="M2160 515 l0 -315 55 0 55 0 0 95 c0 57 4 95 10 95 6 0 10 -4 10 -9
0 -5 22 -34 50 -64 59 -64 144 -107 231 -114 l59 -6 0 52 c0 49 -1 51 -27 51
-45 0 -106 20 -140 46 -40 30 -41 42 -5 50 171 40 229 243 103 364 -61 60 -99
70 -265 70 l-136 0 0 -315z m324 176 c41 -38 51 -84 29 -128 -25 -51 -53 -63
-155 -63 l-88 0 0 108 c0 60 2 111 4 113 2 2 45 2 94 -1 78 -4 94 -8 116 -29z"/>
<path d="M2818 533 c-75 -164 -140 -306 -144 -315 -5 -16 1 -18 51 -18 50 0
61 4 96 33 103 89 284 89 387 1 36 -30 47 -34 97 -34 32 0 55 4 53 10 -1 5
-66 147 -143 314 l-140 306 -60 0 -60 0 -137 -297z m275 5 c37 -80 67 -149 67
-151 0 -3 -46 -3 -102 0 -57 3 -123 0 -148 -5 -24 -6 -45 -10 -46 -9 -1 1 20
49 47 107 27 58 60 131 75 163 14 33 29 55 33 50 4 -4 38 -74 74 -155z"/>
<path d="M3420 515 l0 -315 50 0 50 0 0 131 0 131 88 -4 c146 -7 192 -52 192
-187 l0 -71 56 0 57 0 -5 88 c-6 100 -20 135 -80 193 l-41 40 25 27 c47 50 62
91 66 190 l4 92 -56 0 -56 0 0 -84 c0 -70 -4 -88 -23 -116 -33 -50 -72 -69
-152 -72 l-70 -3 -3 138 -3 137 -49 0 -50 0 0 -315z"/>
<path d="M4772 618 l3 -213 31 -55 c51 -90 161 -150 276 -150 l48 0 0 55 0 55
-57 0 c-70 1 -131 30 -168 79 -25 35 -25 36 -25 238 l0 203 -56 0 -55 0 3
-212z"/>
<path d="M4652 797 c-18 -19 -22 -35 -22 -86 l0 -62 48 3 47 3 3 42 c3 37 0
42 -20 45 -30 4 -34 32 -9 57 l21 21 -23 0 c-13 0 -33 -10 -45 -23z"/>
</g>
</svg>
