<?xml version="1.0" encoding="UTF-8"?><svg id="Layer_1" xmlns="http://www.w3.org/2000/svg" viewBox="0 0 40 40"><defs><style>.cls-1{fill:#f19220;}.cls-2{fill:#0e121c;}</style></defs><path class="cls-2" d="M32.75,17.08c-.83,0-1.5,.67-1.5,1.5v1.33c0,1.57,0,2.68-.06,3.55-.06,.85-.17,1.37-.33,1.76-.52,1.27-1.53,2.27-2.8,2.8-.59,.24-1.38,.35-3.06,.38-.54,0-1.05,.02-1.47,.06-.45,.05-.94,.16-1.41,.43-.47,.27-.8,.63-1.06,1-.25,.34-.5,.77-.77,1.22l-.72,1.22s-.04,.05-.06,.06c-.02,.01-.06,.02-.1,.02s-.08-.01-.1-.02c-.02-.01-.04-.03-.06-.06l-.76-1.28h0c-.25-.43-.49-.83-.73-1.16-.27-.37-.59-.73-1.06-1-.47-.28-.96-.38-1.41-.43-.43-.05-.93-.05-1.47-.06-1.67-.03-2.46-.14-3.06-.38-1.27-.52-2.27-1.53-2.8-2.8-.17-.4-.28-.91-.33-1.76-.06-.87-.06-1.97-.06-3.55v-1.33c0-2.21,0-3.76,.12-4.97,.11-1.18,.32-1.87,.65-2.4,.43-.7,1.01-1.28,1.71-1.71,.53-.32,1.22-.53,2.4-.65,1.2-.11,2.76-.12,4.97-.12h4c.83,0,1.5-.67,1.5-1.5s-.67-1.5-1.5-1.5h-4c-2.15,0-3.87,0-5.25,.13-1.4,.13-2.6,.41-3.68,1.07-1.1,.67-2.02,1.6-2.7,2.7-.66,1.08-.94,2.28-1.07,3.68-.13,1.38-.13,3.1-.13,5.25v1.33c0,1.53,0,2.76,.07,3.75,.07,1.01,.21,1.88,.55,2.71,.83,2,2.42,3.59,4.42,4.42,1.17,.48,2.48,.58,4.15,.61,.59,.01,.94,.02,1.19,.05,.16,.02,.22,.04,.23,.04l.02,.02s.06,.07,.13,.15c.14,.2,.31,.48,.61,.98h0l.72,1.22c1.23,2.07,4.25,2.07,5.48,0l.72-1.22c.29-.5,.46-.78,.61-.98,.06-.09,.11-.13,.13-.15l.02-.02h0s.07-.03,.23-.04c.25-.03,.6-.04,1.19-.05,1.67-.03,2.98-.13,4.15-.61,2-.83,3.59-2.42,4.42-4.42,.34-.83,.49-1.7,.55-2.71,.07-.99,.07-2.22,.07-3.75v-1.33c0-.83-.67-1.5-1.5-1.5ZM15.2,31.49h0Z"/><circle class="cls-1" cx="30.08" cy="9.92" r="5.33"/><path class="cls-2" d="M24.75,17.58H14.08c-.55,0-1-.45-1-1s.45-1,1-1h10.67c.55,0,1,.45,1,1s-.45,1-1,1Z"/><path class="cls-2" d="M21.42,22.25h-7.33c-.55,0-1-.45-1-1s.45-1,1-1h7.33c.55,0,1,.45,1,1s-.45,1-1,1Z"/></svg>